<mxfile host="Electron" modified="2024-03-18T11:29:54.442Z" agent="Mozilla/5.0 (Windows NT 10.0; Win64; x64) AppleWebKit/537.36 (KHTML, like Gecko) draw.io/23.1.5 Chrome/120.0.6099.109 Electron/28.1.0 Safari/537.36" etag="kMrAFApZnzCMvK5ZLi5z" version="23.1.5" type="device">
  <diagram name="Page-1" id="2c4490ee-f0b8-94ab-5012-d5dc3445f7a3">
    <mxGraphModel dx="1687" dy="993" grid="1" gridSize="10" guides="1" tooltips="1" connect="0" arrows="1" fold="1" page="1" pageScale="1.5" pageWidth="1169" pageHeight="826" background="none" math="0" shadow="0">
      <root>
        <mxCell id="0" style=";html=1;" />
        <mxCell id="1" style=";html=1;" parent="0" />
        <mxCell id="67c90442a009f359-279" value="Mar" style="strokeWidth=1;fontStyle=0;html=1;" parent="1" vertex="1">
          <mxGeometry x="460" y="439" width="60" height="20" as="geometry" />
        </mxCell>
        <mxCell id="7a8b956e7d50b54d-104" value="Apr" style="strokeWidth=1;fontStyle=0;html=1;" parent="1" vertex="1">
          <mxGeometry x="520" y="439" width="120" height="20" as="geometry" />
        </mxCell>
        <mxCell id="7a8b956e7d50b54d-109" value="May" style="strokeWidth=1;fontStyle=0;html=1;" parent="1" vertex="1">
          <mxGeometry x="640" y="439" width="120" height="20" as="geometry" />
        </mxCell>
        <mxCell id="7a8b956e7d50b54d-114" value="June" style="strokeWidth=1;fontStyle=0;html=1;" parent="1" vertex="1">
          <mxGeometry x="760" y="439" width="120" height="20" as="geometry" />
        </mxCell>
        <mxCell id="7a8b956e7d50b54d-119" value="July" style="strokeWidth=1;fontStyle=0;html=1;" parent="1" vertex="1">
          <mxGeometry x="880" y="439" width="120" height="20" as="geometry" />
        </mxCell>
        <mxCell id="7a8b956e7d50b54d-124" value="Aug" style="strokeWidth=1;fontStyle=0;html=1;" parent="1" vertex="1">
          <mxGeometry x="1000" y="439" width="120" height="20" as="geometry" />
        </mxCell>
        <mxCell id="7a8b956e7d50b54d-129" value="Sept" style="strokeWidth=1;fontStyle=0;html=1;" parent="1" vertex="1">
          <mxGeometry x="1120" y="439" width="120" height="20" as="geometry" />
        </mxCell>
        <mxCell id="7a8b956e7d50b54d-134" value="Oct" style="strokeWidth=1;fontStyle=0;html=1;" parent="1" vertex="1">
          <mxGeometry x="1240" y="439" width="120" height="20" as="geometry" />
        </mxCell>
        <mxCell id="7a8b956e7d50b54d-193" value="" style="align=left;strokeColor=#CCCCCC;html=1;" parent="1" vertex="1">
          <mxGeometry x="460" y="479" width="60" height="20" as="geometry" />
        </mxCell>
        <mxCell id="7a8b956e7d50b54d-194" value="" style="align=left;strokeColor=#CCCCCC;html=1;" parent="1" vertex="1">
          <mxGeometry x="460" y="499" width="60" height="20" as="geometry" />
        </mxCell>
        <mxCell id="7a8b956e7d50b54d-195" value="" style="align=left;strokeColor=#CCCCCC;html=1;" parent="1" vertex="1">
          <mxGeometry x="460" y="519" width="60" height="20" as="geometry" />
        </mxCell>
        <mxCell id="7a8b956e7d50b54d-196" value="" style="align=left;strokeColor=#CCCCCC;html=1;" parent="1" vertex="1">
          <mxGeometry x="460" y="539" width="60" height="20" as="geometry" />
        </mxCell>
        <mxCell id="7a8b956e7d50b54d-197" value="" style="align=left;strokeColor=#CCCCCC;html=1;" parent="1" vertex="1">
          <mxGeometry x="460" y="559" width="60" height="20" as="geometry" />
        </mxCell>
        <mxCell id="7a8b956e7d50b54d-198" value="" style="align=left;strokeColor=#CCCCCC;html=1;" parent="1" vertex="1">
          <mxGeometry x="460" y="579" width="60" height="20" as="geometry" />
        </mxCell>
        <mxCell id="7a8b956e7d50b54d-199" value="" style="align=left;strokeColor=#CCCCCC;html=1;" parent="1" vertex="1">
          <mxGeometry x="460" y="599" width="60" height="20" as="geometry" />
        </mxCell>
        <mxCell id="7a8b956e7d50b54d-200" value="" style="align=left;strokeColor=#CCCCCC;html=1;" parent="1" vertex="1">
          <mxGeometry x="460" y="620" width="60" height="19" as="geometry" />
        </mxCell>
        <mxCell id="7a8b956e7d50b54d-201" value="" style="align=left;strokeColor=#CCCCCC;html=1;" parent="1" vertex="1">
          <mxGeometry x="460" y="640" width="60" height="18" as="geometry" />
        </mxCell>
        <mxCell id="7a8b956e7d50b54d-202" value="" style="align=left;strokeColor=#CCCCCC;html=1;" parent="1" vertex="1">
          <mxGeometry x="460" y="659" width="60" height="20" as="geometry" />
        </mxCell>
        <mxCell id="7a8b956e7d50b54d-203" value="" style="align=left;strokeColor=#CCCCCC;html=1;" parent="1" vertex="1">
          <mxGeometry x="460" y="679" width="60" height="20" as="geometry" />
        </mxCell>
        <mxCell id="7a8b956e7d50b54d-204" value="" style="align=left;strokeColor=#CCCCCC;html=1;" parent="1" vertex="1">
          <mxGeometry x="460" y="699" width="60" height="20" as="geometry" />
        </mxCell>
        <mxCell id="7a8b956e7d50b54d-209" value="" style="align=left;strokeColor=#CCCCCC;html=1;" parent="1" vertex="1">
          <mxGeometry x="520" y="479" width="120" height="20" as="geometry" />
        </mxCell>
        <mxCell id="7a8b956e7d50b54d-210" value="" style="align=left;strokeColor=#CCCCCC;html=1;" parent="1" vertex="1">
          <mxGeometry x="520" y="499" width="120" height="20" as="geometry" />
        </mxCell>
        <mxCell id="7a8b956e7d50b54d-211" value="" style="align=left;strokeColor=#CCCCCC;html=1;" parent="1" vertex="1">
          <mxGeometry x="520" y="519" width="120" height="20" as="geometry" />
        </mxCell>
        <mxCell id="7a8b956e7d50b54d-212" value="" style="align=left;strokeColor=#CCCCCC;html=1;" parent="1" vertex="1">
          <mxGeometry x="520" y="539" width="120" height="20" as="geometry" />
        </mxCell>
        <mxCell id="7a8b956e7d50b54d-213" value="" style="align=left;strokeColor=#CCCCCC;html=1;" parent="1" vertex="1">
          <mxGeometry x="520" y="559" width="120" height="20" as="geometry" />
        </mxCell>
        <mxCell id="7a8b956e7d50b54d-214" value="" style="align=left;strokeColor=#CCCCCC;html=1;" parent="1" vertex="1">
          <mxGeometry x="520" y="579" width="120" height="20" as="geometry" />
        </mxCell>
        <mxCell id="7a8b956e7d50b54d-215" value="" style="align=left;strokeColor=#CCCCCC;html=1;" parent="1" vertex="1">
          <mxGeometry x="520" y="599" width="120" height="20" as="geometry" />
        </mxCell>
        <mxCell id="7a8b956e7d50b54d-216" value="" style="align=left;strokeColor=#CCCCCC;html=1;" parent="1" vertex="1">
          <mxGeometry x="520" y="619" width="120" height="20" as="geometry" />
        </mxCell>
        <mxCell id="7a8b956e7d50b54d-217" value="" style="align=left;strokeColor=#CCCCCC;html=1;" parent="1" vertex="1">
          <mxGeometry x="520" y="639" width="120" height="20" as="geometry" />
        </mxCell>
        <mxCell id="7a8b956e7d50b54d-218" value="" style="align=left;strokeColor=#CCCCCC;html=1;" parent="1" vertex="1">
          <mxGeometry x="520" y="659" width="120" height="20" as="geometry" />
        </mxCell>
        <mxCell id="7a8b956e7d50b54d-219" value="" style="align=left;strokeColor=#CCCCCC;html=1;" parent="1" vertex="1">
          <mxGeometry x="520" y="679" width="120" height="20" as="geometry" />
        </mxCell>
        <mxCell id="7a8b956e7d50b54d-220" value="" style="align=left;strokeColor=#CCCCCC;html=1;" parent="1" vertex="1">
          <mxGeometry x="520" y="699" width="120" height="20" as="geometry" />
        </mxCell>
        <mxCell id="7a8b956e7d50b54d-225" value="" style="align=left;strokeColor=#CCCCCC;html=1;" parent="1" vertex="1">
          <mxGeometry x="640" y="479" width="120" height="20" as="geometry" />
        </mxCell>
        <mxCell id="7a8b956e7d50b54d-226" value="" style="align=left;strokeColor=#CCCCCC;html=1;" parent="1" vertex="1">
          <mxGeometry x="640" y="499" width="120" height="20" as="geometry" />
        </mxCell>
        <mxCell id="7a8b956e7d50b54d-227" value="" style="align=left;strokeColor=#CCCCCC;html=1;" parent="1" vertex="1">
          <mxGeometry x="640" y="519" width="120" height="20" as="geometry" />
        </mxCell>
        <mxCell id="7a8b956e7d50b54d-228" value="" style="align=left;strokeColor=#CCCCCC;html=1;" parent="1" vertex="1">
          <mxGeometry x="640" y="539" width="120" height="20" as="geometry" />
        </mxCell>
        <mxCell id="7a8b956e7d50b54d-229" value="" style="align=left;strokeColor=#CCCCCC;html=1;" parent="1" vertex="1">
          <mxGeometry x="640" y="559" width="120" height="20" as="geometry" />
        </mxCell>
        <mxCell id="7a8b956e7d50b54d-230" value="" style="align=left;strokeColor=#CCCCCC;html=1;" parent="1" vertex="1">
          <mxGeometry x="640" y="579" width="120" height="20" as="geometry" />
        </mxCell>
        <mxCell id="7a8b956e7d50b54d-231" value="" style="align=left;strokeColor=#CCCCCC;html=1;" parent="1" vertex="1">
          <mxGeometry x="640" y="599" width="120" height="20" as="geometry" />
        </mxCell>
        <mxCell id="7a8b956e7d50b54d-232" value="" style="align=left;strokeColor=#CCCCCC;html=1;" parent="1" vertex="1">
          <mxGeometry x="640" y="619" width="120" height="20" as="geometry" />
        </mxCell>
        <mxCell id="7a8b956e7d50b54d-233" value="" style="align=left;strokeColor=#CCCCCC;html=1;" parent="1" vertex="1">
          <mxGeometry x="640" y="639" width="120" height="20" as="geometry" />
        </mxCell>
        <mxCell id="7a8b956e7d50b54d-234" value="" style="align=left;strokeColor=#CCCCCC;html=1;" parent="1" vertex="1">
          <mxGeometry x="640" y="659" width="120" height="20" as="geometry" />
        </mxCell>
        <mxCell id="7a8b956e7d50b54d-235" value="" style="align=left;strokeColor=#CCCCCC;html=1;" parent="1" vertex="1">
          <mxGeometry x="640" y="679" width="120" height="20" as="geometry" />
        </mxCell>
        <mxCell id="7a8b956e7d50b54d-236" value="" style="align=left;strokeColor=#CCCCCC;html=1;" parent="1" vertex="1">
          <mxGeometry x="640" y="699" width="120" height="20" as="geometry" />
        </mxCell>
        <mxCell id="7a8b956e7d50b54d-241" value="" style="align=left;strokeColor=#CCCCCC;html=1;" parent="1" vertex="1">
          <mxGeometry x="760" y="479" width="120" height="20" as="geometry" />
        </mxCell>
        <mxCell id="7a8b956e7d50b54d-242" value="" style="align=left;strokeColor=#CCCCCC;html=1;" parent="1" vertex="1">
          <mxGeometry x="760" y="499" width="120" height="20" as="geometry" />
        </mxCell>
        <mxCell id="7a8b956e7d50b54d-243" value="" style="align=left;strokeColor=#CCCCCC;html=1;" parent="1" vertex="1">
          <mxGeometry x="760" y="519" width="120" height="20" as="geometry" />
        </mxCell>
        <mxCell id="7a8b956e7d50b54d-244" value="" style="align=left;strokeColor=#CCCCCC;html=1;" parent="1" vertex="1">
          <mxGeometry x="760" y="539" width="120" height="20" as="geometry" />
        </mxCell>
        <mxCell id="7a8b956e7d50b54d-245" value="" style="align=left;strokeColor=#CCCCCC;html=1;" parent="1" vertex="1">
          <mxGeometry x="760" y="559" width="120" height="20" as="geometry" />
        </mxCell>
        <mxCell id="7a8b956e7d50b54d-246" value="" style="align=left;strokeColor=#CCCCCC;html=1;" parent="1" vertex="1">
          <mxGeometry x="760" y="579" width="120" height="20" as="geometry" />
        </mxCell>
        <mxCell id="7a8b956e7d50b54d-247" value="" style="align=left;strokeColor=#CCCCCC;html=1;" parent="1" vertex="1">
          <mxGeometry x="760" y="599" width="120" height="20" as="geometry" />
        </mxCell>
        <mxCell id="7a8b956e7d50b54d-248" value="" style="align=left;strokeColor=#CCCCCC;html=1;" parent="1" vertex="1">
          <mxGeometry x="760" y="619" width="120" height="20" as="geometry" />
        </mxCell>
        <mxCell id="7a8b956e7d50b54d-249" value="" style="align=left;strokeColor=#CCCCCC;html=1;" parent="1" vertex="1">
          <mxGeometry x="760" y="639" width="120" height="20" as="geometry" />
        </mxCell>
        <mxCell id="7a8b956e7d50b54d-250" value="" style="align=left;strokeColor=#CCCCCC;html=1;" parent="1" vertex="1">
          <mxGeometry x="760" y="659" width="120" height="20" as="geometry" />
        </mxCell>
        <mxCell id="7a8b956e7d50b54d-251" value="" style="align=left;strokeColor=#CCCCCC;html=1;" parent="1" vertex="1">
          <mxGeometry x="760" y="679" width="120" height="20" as="geometry" />
        </mxCell>
        <mxCell id="7a8b956e7d50b54d-252" value="" style="align=left;strokeColor=#CCCCCC;html=1;" parent="1" vertex="1">
          <mxGeometry x="760" y="699" width="120" height="20" as="geometry" />
        </mxCell>
        <mxCell id="7a8b956e7d50b54d-257" value="" style="align=left;strokeColor=#CCCCCC;html=1;" parent="1" vertex="1">
          <mxGeometry x="880" y="479" width="120" height="20" as="geometry" />
        </mxCell>
        <mxCell id="7a8b956e7d50b54d-258" value="" style="align=left;strokeColor=#CCCCCC;html=1;" parent="1" vertex="1">
          <mxGeometry x="880" y="499" width="120" height="20" as="geometry" />
        </mxCell>
        <mxCell id="7a8b956e7d50b54d-259" value="" style="align=left;strokeColor=#CCCCCC;html=1;" parent="1" vertex="1">
          <mxGeometry x="880" y="519" width="120" height="20" as="geometry" />
        </mxCell>
        <mxCell id="7a8b956e7d50b54d-260" value="" style="align=left;strokeColor=#CCCCCC;html=1;" parent="1" vertex="1">
          <mxGeometry x="880" y="539" width="120" height="20" as="geometry" />
        </mxCell>
        <mxCell id="7a8b956e7d50b54d-261" value="" style="align=left;strokeColor=#CCCCCC;html=1;" parent="1" vertex="1">
          <mxGeometry x="880" y="559" width="120" height="20" as="geometry" />
        </mxCell>
        <mxCell id="7a8b956e7d50b54d-262" value="" style="align=left;strokeColor=#CCCCCC;html=1;" parent="1" vertex="1">
          <mxGeometry x="880" y="579" width="120" height="20" as="geometry" />
        </mxCell>
        <mxCell id="7a8b956e7d50b54d-263" value="" style="align=left;strokeColor=#CCCCCC;html=1;" parent="1" vertex="1">
          <mxGeometry x="880" y="599" width="120" height="20" as="geometry" />
        </mxCell>
        <mxCell id="7a8b956e7d50b54d-264" value="" style="align=left;strokeColor=#CCCCCC;html=1;" parent="1" vertex="1">
          <mxGeometry x="880" y="619" width="120" height="20" as="geometry" />
        </mxCell>
        <mxCell id="7a8b956e7d50b54d-265" value="" style="align=left;strokeColor=#CCCCCC;html=1;" parent="1" vertex="1">
          <mxGeometry x="880" y="639" width="120" height="20" as="geometry" />
        </mxCell>
        <mxCell id="7a8b956e7d50b54d-266" value="" style="align=left;strokeColor=#CCCCCC;html=1;" parent="1" vertex="1">
          <mxGeometry x="880" y="659" width="120" height="20" as="geometry" />
        </mxCell>
        <mxCell id="7a8b956e7d50b54d-267" value="" style="align=left;strokeColor=#CCCCCC;html=1;" parent="1" vertex="1">
          <mxGeometry x="880" y="679" width="120" height="20" as="geometry" />
        </mxCell>
        <mxCell id="7a8b956e7d50b54d-268" value="" style="align=left;strokeColor=#CCCCCC;html=1;" parent="1" vertex="1">
          <mxGeometry x="880" y="699" width="120" height="20" as="geometry" />
        </mxCell>
        <mxCell id="7a8b956e7d50b54d-273" value="" style="align=left;strokeColor=#CCCCCC;html=1;" parent="1" vertex="1">
          <mxGeometry x="1000" y="479" width="120" height="20" as="geometry" />
        </mxCell>
        <mxCell id="7a8b956e7d50b54d-274" value="" style="align=left;strokeColor=#CCCCCC;html=1;" parent="1" vertex="1">
          <mxGeometry x="1000" y="499" width="120" height="20" as="geometry" />
        </mxCell>
        <mxCell id="7a8b956e7d50b54d-275" value="" style="align=left;strokeColor=#CCCCCC;html=1;" parent="1" vertex="1">
          <mxGeometry x="1000" y="519" width="120" height="20" as="geometry" />
        </mxCell>
        <mxCell id="7a8b956e7d50b54d-276" value="" style="align=left;strokeColor=#CCCCCC;html=1;" parent="1" vertex="1">
          <mxGeometry x="1000" y="539" width="120" height="20" as="geometry" />
        </mxCell>
        <mxCell id="7a8b956e7d50b54d-277" value="" style="align=left;strokeColor=#CCCCCC;html=1;" parent="1" vertex="1">
          <mxGeometry x="1000" y="559" width="120" height="20" as="geometry" />
        </mxCell>
        <mxCell id="7a8b956e7d50b54d-278" value="" style="align=left;strokeColor=#CCCCCC;html=1;" parent="1" vertex="1">
          <mxGeometry x="1000" y="579" width="120" height="20" as="geometry" />
        </mxCell>
        <mxCell id="7a8b956e7d50b54d-279" value="" style="align=left;strokeColor=#CCCCCC;html=1;" parent="1" vertex="1">
          <mxGeometry x="1000" y="599" width="120" height="20" as="geometry" />
        </mxCell>
        <mxCell id="7a8b956e7d50b54d-280" value="" style="align=left;strokeColor=#CCCCCC;html=1;" parent="1" vertex="1">
          <mxGeometry x="1000" y="619" width="120" height="20" as="geometry" />
        </mxCell>
        <mxCell id="7a8b956e7d50b54d-281" value="" style="align=left;strokeColor=#CCCCCC;html=1;" parent="1" vertex="1">
          <mxGeometry x="1000" y="639" width="120" height="20" as="geometry" />
        </mxCell>
        <mxCell id="7a8b956e7d50b54d-282" value="" style="align=left;strokeColor=#CCCCCC;html=1;" parent="1" vertex="1">
          <mxGeometry x="1000" y="659" width="120" height="20" as="geometry" />
        </mxCell>
        <mxCell id="7a8b956e7d50b54d-283" value="" style="align=left;strokeColor=#CCCCCC;html=1;" parent="1" vertex="1">
          <mxGeometry x="1000" y="679" width="120" height="20" as="geometry" />
        </mxCell>
        <mxCell id="7a8b956e7d50b54d-284" value="" style="align=left;strokeColor=#CCCCCC;html=1;" parent="1" vertex="1">
          <mxGeometry x="1000" y="699" width="120" height="20" as="geometry" />
        </mxCell>
        <mxCell id="7a8b956e7d50b54d-289" value="" style="align=left;strokeColor=#CCCCCC;html=1;" parent="1" vertex="1">
          <mxGeometry x="1120" y="479" width="120" height="20" as="geometry" />
        </mxCell>
        <mxCell id="7a8b956e7d50b54d-290" value="" style="align=left;strokeColor=#CCCCCC;html=1;" parent="1" vertex="1">
          <mxGeometry x="1120" y="499" width="120" height="20" as="geometry" />
        </mxCell>
        <mxCell id="7a8b956e7d50b54d-291" value="" style="align=left;strokeColor=#CCCCCC;html=1;" parent="1" vertex="1">
          <mxGeometry x="1120" y="519" width="120" height="20" as="geometry" />
        </mxCell>
        <mxCell id="7a8b956e7d50b54d-292" value="" style="align=left;strokeColor=#CCCCCC;html=1;" parent="1" vertex="1">
          <mxGeometry x="1120" y="539" width="120" height="20" as="geometry" />
        </mxCell>
        <mxCell id="7a8b956e7d50b54d-293" value="" style="align=left;strokeColor=#CCCCCC;html=1;" parent="1" vertex="1">
          <mxGeometry x="1120" y="559" width="120" height="20" as="geometry" />
        </mxCell>
        <mxCell id="7a8b956e7d50b54d-294" value="" style="align=left;strokeColor=#CCCCCC;html=1;" parent="1" vertex="1">
          <mxGeometry x="1120" y="579" width="120" height="20" as="geometry" />
        </mxCell>
        <mxCell id="7a8b956e7d50b54d-295" value="" style="align=left;strokeColor=#CCCCCC;html=1;" parent="1" vertex="1">
          <mxGeometry x="1120" y="599" width="120" height="20" as="geometry" />
        </mxCell>
        <mxCell id="7a8b956e7d50b54d-296" value="" style="align=left;strokeColor=#CCCCCC;html=1;" parent="1" vertex="1">
          <mxGeometry x="1120" y="619" width="120" height="20" as="geometry" />
        </mxCell>
        <mxCell id="7a8b956e7d50b54d-297" value="" style="align=left;strokeColor=#CCCCCC;html=1;" parent="1" vertex="1">
          <mxGeometry x="1120" y="639" width="120" height="20" as="geometry" />
        </mxCell>
        <mxCell id="7a8b956e7d50b54d-298" value="" style="align=left;strokeColor=#CCCCCC;html=1;" parent="1" vertex="1">
          <mxGeometry x="1120" y="659" width="120" height="20" as="geometry" />
        </mxCell>
        <mxCell id="7a8b956e7d50b54d-299" value="" style="align=left;strokeColor=#CCCCCC;html=1;" parent="1" vertex="1">
          <mxGeometry x="1120" y="679" width="120" height="20" as="geometry" />
        </mxCell>
        <mxCell id="7a8b956e7d50b54d-300" value="" style="align=left;strokeColor=#CCCCCC;html=1;" parent="1" vertex="1">
          <mxGeometry x="1120" y="699" width="120" height="20" as="geometry" />
        </mxCell>
        <mxCell id="7a8b956e7d50b54d-305" value="" style="align=left;strokeColor=#CCCCCC;html=1;" parent="1" vertex="1">
          <mxGeometry x="1240" y="479" width="120" height="20" as="geometry" />
        </mxCell>
        <mxCell id="7a8b956e7d50b54d-306" value="" style="align=left;strokeColor=#CCCCCC;html=1;" parent="1" vertex="1">
          <mxGeometry x="1240" y="499" width="120" height="20" as="geometry" />
        </mxCell>
        <mxCell id="7a8b956e7d50b54d-307" value="" style="align=left;strokeColor=#CCCCCC;html=1;" parent="1" vertex="1">
          <mxGeometry x="1240" y="519" width="120" height="20" as="geometry" />
        </mxCell>
        <mxCell id="7a8b956e7d50b54d-308" value="" style="align=left;strokeColor=#CCCCCC;html=1;" parent="1" vertex="1">
          <mxGeometry x="1240" y="539" width="120" height="20" as="geometry" />
        </mxCell>
        <mxCell id="7a8b956e7d50b54d-309" value="" style="align=left;strokeColor=#CCCCCC;html=1;" parent="1" vertex="1">
          <mxGeometry x="1240" y="559" width="120" height="20" as="geometry" />
        </mxCell>
        <mxCell id="7a8b956e7d50b54d-310" value="" style="align=left;strokeColor=#CCCCCC;html=1;" parent="1" vertex="1">
          <mxGeometry x="1240" y="579" width="120" height="20" as="geometry" />
        </mxCell>
        <mxCell id="7a8b956e7d50b54d-311" value="" style="align=left;strokeColor=#CCCCCC;html=1;" parent="1" vertex="1">
          <mxGeometry x="1240" y="599" width="120" height="20" as="geometry" />
        </mxCell>
        <mxCell id="7a8b956e7d50b54d-312" value="" style="align=left;strokeColor=#CCCCCC;html=1;" parent="1" vertex="1">
          <mxGeometry x="1240" y="619" width="120" height="20" as="geometry" />
        </mxCell>
        <mxCell id="7a8b956e7d50b54d-313" value="" style="align=left;strokeColor=#CCCCCC;html=1;" parent="1" vertex="1">
          <mxGeometry x="1240" y="639" width="120" height="20" as="geometry" />
        </mxCell>
        <mxCell id="7a8b956e7d50b54d-314" value="" style="align=left;strokeColor=#CCCCCC;html=1;" parent="1" vertex="1">
          <mxGeometry x="1240" y="659" width="120" height="20" as="geometry" />
        </mxCell>
        <mxCell id="7a8b956e7d50b54d-315" value="" style="align=left;strokeColor=#CCCCCC;html=1;" parent="1" vertex="1">
          <mxGeometry x="1240" y="679" width="120" height="20" as="geometry" />
        </mxCell>
        <mxCell id="7a8b956e7d50b54d-316" value="" style="align=left;strokeColor=#CCCCCC;html=1;" parent="1" vertex="1">
          <mxGeometry x="1240" y="699" width="120" height="20" as="geometry" />
        </mxCell>
        <mxCell id="7a8b956e7d50b54d-102" value="W3" style="strokeWidth=1;fontStyle=0;html=1;" parent="1" vertex="1">
          <mxGeometry x="460" y="459" width="30" height="20" as="geometry" />
        </mxCell>
        <mxCell id="7a8b956e7d50b54d-103" value="W4" style="strokeWidth=1;fontStyle=0;html=1;" parent="1" vertex="1">
          <mxGeometry x="490" y="459" width="30" height="20" as="geometry" />
        </mxCell>
        <mxCell id="7a8b956e7d50b54d-105" value="W1" style="strokeWidth=1;fontStyle=0;html=1;" parent="1" vertex="1">
          <mxGeometry x="520" y="459" width="30" height="20" as="geometry" />
        </mxCell>
        <mxCell id="7a8b956e7d50b54d-106" value="W2" style="strokeWidth=1;fontStyle=0;html=1;" parent="1" vertex="1">
          <mxGeometry x="550" y="459" width="30" height="20" as="geometry" />
        </mxCell>
        <mxCell id="7a8b956e7d50b54d-107" value="W3" style="strokeWidth=1;fontStyle=0;html=1;" parent="1" vertex="1">
          <mxGeometry x="580" y="459" width="30" height="20" as="geometry" />
        </mxCell>
        <mxCell id="7a8b956e7d50b54d-108" value="W4" style="strokeWidth=1;fontStyle=0;html=1;" parent="1" vertex="1">
          <mxGeometry x="610" y="459" width="30" height="20" as="geometry" />
        </mxCell>
        <mxCell id="7a8b956e7d50b54d-110" value="W1" style="strokeWidth=1;fontStyle=0;html=1;" parent="1" vertex="1">
          <mxGeometry x="640" y="459" width="30" height="20" as="geometry" />
        </mxCell>
        <mxCell id="7a8b956e7d50b54d-111" value="W2" style="strokeWidth=1;fontStyle=0;html=1;" parent="1" vertex="1">
          <mxGeometry x="670" y="459" width="30" height="20" as="geometry" />
        </mxCell>
        <mxCell id="7a8b956e7d50b54d-112" value="W3" style="strokeWidth=1;fontStyle=0;html=1;" parent="1" vertex="1">
          <mxGeometry x="700" y="459" width="30" height="20" as="geometry" />
        </mxCell>
        <mxCell id="7a8b956e7d50b54d-113" value="W4" style="strokeWidth=1;fontStyle=0;html=1;" parent="1" vertex="1">
          <mxGeometry x="730" y="459" width="30" height="20" as="geometry" />
        </mxCell>
        <mxCell id="7a8b956e7d50b54d-115" value="W1" style="strokeWidth=1;fontStyle=0;html=1;" parent="1" vertex="1">
          <mxGeometry x="760" y="459" width="30" height="20" as="geometry" />
        </mxCell>
        <mxCell id="7a8b956e7d50b54d-116" value="W2" style="strokeWidth=1;fontStyle=0;html=1;" parent="1" vertex="1">
          <mxGeometry x="790" y="459" width="30" height="20" as="geometry" />
        </mxCell>
        <mxCell id="7a8b956e7d50b54d-117" value="W3" style="strokeWidth=1;fontStyle=0;html=1;" parent="1" vertex="1">
          <mxGeometry x="820" y="459" width="30" height="20" as="geometry" />
        </mxCell>
        <mxCell id="7a8b956e7d50b54d-118" value="W4" style="strokeWidth=1;fontStyle=0;html=1;" parent="1" vertex="1">
          <mxGeometry x="850" y="459" width="30" height="20" as="geometry" />
        </mxCell>
        <mxCell id="7a8b956e7d50b54d-120" value="W1" style="strokeWidth=1;fontStyle=0;html=1;" parent="1" vertex="1">
          <mxGeometry x="880" y="459" width="30" height="20" as="geometry" />
        </mxCell>
        <mxCell id="7a8b956e7d50b54d-121" value="W2" style="strokeWidth=1;fontStyle=0;html=1;" parent="1" vertex="1">
          <mxGeometry x="910" y="459" width="30" height="20" as="geometry" />
        </mxCell>
        <mxCell id="7a8b956e7d50b54d-122" value="W3" style="strokeWidth=1;fontStyle=0;html=1;" parent="1" vertex="1">
          <mxGeometry x="940" y="459" width="30" height="20" as="geometry" />
        </mxCell>
        <mxCell id="7a8b956e7d50b54d-123" value="W4" style="strokeWidth=1;fontStyle=0;html=1;" parent="1" vertex="1">
          <mxGeometry x="970" y="459" width="30" height="20" as="geometry" />
        </mxCell>
        <mxCell id="7a8b956e7d50b54d-125" value="W1" style="strokeWidth=1;fontStyle=0;html=1;" parent="1" vertex="1">
          <mxGeometry x="1000" y="459" width="30" height="20" as="geometry" />
        </mxCell>
        <mxCell id="7a8b956e7d50b54d-126" value="W2" style="strokeWidth=1;fontStyle=0;html=1;" parent="1" vertex="1">
          <mxGeometry x="1030" y="459" width="30" height="20" as="geometry" />
        </mxCell>
        <mxCell id="7a8b956e7d50b54d-127" value="W3" style="strokeWidth=1;fontStyle=0;html=1;" parent="1" vertex="1">
          <mxGeometry x="1060" y="459" width="30" height="20" as="geometry" />
        </mxCell>
        <mxCell id="7a8b956e7d50b54d-128" value="W4" style="strokeWidth=1;fontStyle=0;html=1;" parent="1" vertex="1">
          <mxGeometry x="1090" y="459" width="30" height="20" as="geometry" />
        </mxCell>
        <mxCell id="7a8b956e7d50b54d-130" value="W1" style="strokeWidth=1;fontStyle=0;html=1;" parent="1" vertex="1">
          <mxGeometry x="1120" y="459" width="30" height="20" as="geometry" />
        </mxCell>
        <mxCell id="7a8b956e7d50b54d-131" value="W2" style="strokeWidth=1;fontStyle=0;html=1;" parent="1" vertex="1">
          <mxGeometry x="1150" y="459" width="30" height="20" as="geometry" />
        </mxCell>
        <mxCell id="7a8b956e7d50b54d-132" value="W3" style="strokeWidth=1;fontStyle=0;html=1;" parent="1" vertex="1">
          <mxGeometry x="1180" y="459" width="30" height="20" as="geometry" />
        </mxCell>
        <mxCell id="7a8b956e7d50b54d-133" value="W4" style="strokeWidth=1;fontStyle=0;html=1;" parent="1" vertex="1">
          <mxGeometry x="1210" y="459" width="30" height="20" as="geometry" />
        </mxCell>
        <mxCell id="7a8b956e7d50b54d-135" value="W1" style="strokeWidth=1;fontStyle=0;html=1;" parent="1" vertex="1">
          <mxGeometry x="1240" y="459" width="30" height="20" as="geometry" />
        </mxCell>
        <mxCell id="7a8b956e7d50b54d-136" value="W2" style="strokeWidth=1;fontStyle=0;html=1;" parent="1" vertex="1">
          <mxGeometry x="1270" y="459" width="30" height="20" as="geometry" />
        </mxCell>
        <mxCell id="7a8b956e7d50b54d-137" value="W3" style="strokeWidth=1;fontStyle=0;html=1;" parent="1" vertex="1">
          <mxGeometry x="1300" y="459" width="30" height="20" as="geometry" />
        </mxCell>
        <mxCell id="7a8b956e7d50b54d-138" value="W4" style="strokeWidth=1;fontStyle=0;html=1;" parent="1" vertex="1">
          <mxGeometry x="1330" y="459" width="30" height="20" as="geometry" />
        </mxCell>
        <mxCell id="TyAQfPITqGtHTtMJ1SKI-4" value="T3" style="align=center;strokeColor=#b85450;html=1;fillColor=#f8cecc;" vertex="1" parent="1">
          <mxGeometry x="610" y="519" width="30" height="20" as="geometry" />
        </mxCell>
        <mxCell id="TyAQfPITqGtHTtMJ1SKI-5" value="T2" style="align=center;strokeColor=#b85450;html=1;fillColor=#f8cecc;" vertex="1" parent="1">
          <mxGeometry x="550" y="499" width="30" height="20" as="geometry" />
        </mxCell>
        <mxCell id="TyAQfPITqGtHTtMJ1SKI-8" value="&lt;font style=&quot;font-size: 10px;&quot;&gt;task 1&lt;/font&gt;" style="align=center;strokeColor=#6c8ebf;html=1;fillColor=#dae8fc;" vertex="1" parent="1">
          <mxGeometry x="460" y="479" width="60" height="20" as="geometry" />
        </mxCell>
        <mxCell id="TyAQfPITqGtHTtMJ1SKI-9" value="Task&lt;br&gt;1: flash&lt;br&gt;2: sensores pressão&lt;br&gt;3: valvulas&lt;br&gt;4: rs485&lt;br&gt;5: sensores temperature&lt;br&gt;6: sensores peso&lt;br&gt;7: segurança de comunicação&lt;br&gt;8: IMU freefall detection&lt;br&gt;9: Barometro&lt;br&gt;10: GPS&lt;br&gt;11: Kalman filter" style="text;html=1;align=left;verticalAlign=middle;whiteSpace=wrap;rounded=0;" vertex="1" parent="1">
          <mxGeometry x="50" y="490" width="160" height="141" as="geometry" />
        </mxCell>
        <mxCell id="TyAQfPITqGtHTtMJ1SKI-10" value="&lt;font style=&quot;font-size: 10px;&quot;&gt;task 2&lt;/font&gt;" style="align=center;strokeColor=#6c8ebf;html=1;fillColor=#dae8fc;" vertex="1" parent="1">
          <mxGeometry x="490" y="499" width="30" height="20" as="geometry" />
        </mxCell>
        <mxCell id="TyAQfPITqGtHTtMJ1SKI-11" value="&lt;font style=&quot;font-size: 10px;&quot;&gt;task 5&lt;/font&gt;" style="align=left;strokeColor=#6c8ebf;html=1;fillColor=#dae8fc;" vertex="1" parent="1">
          <mxGeometry x="550" y="539" width="30" height="20" as="geometry" />
        </mxCell>
        <mxCell id="TyAQfPITqGtHTtMJ1SKI-12" value="&lt;font style=&quot;font-size: 10px;&quot;&gt;task 6&lt;/font&gt;" style="align=left;strokeColor=#6c8ebf;html=1;fillColor=#dae8fc;" vertex="1" parent="1">
          <mxGeometry x="550" y="559" width="30" height="20" as="geometry" />
        </mxCell>
        <mxCell id="TyAQfPITqGtHTtMJ1SKI-13" value="&lt;font style=&quot;font-size: 10px;&quot;&gt;task 4&lt;/font&gt;" style="align=center;strokeColor=#6c8ebf;html=1;fillColor=#dae8fc;" vertex="1" parent="1">
          <mxGeometry x="490" y="539" width="60" height="20" as="geometry" />
        </mxCell>
        <mxCell id="TyAQfPITqGtHTtMJ1SKI-14" value="Test:&lt;br&gt;1: teste maquinas de estado&lt;br&gt;2: teste de pressão&lt;br&gt;3: teste estatico&lt;br&gt;4: teste paraquedas&lt;br&gt;5: teste de lançamento&lt;br&gt;6: Competição&lt;br&gt;&lt;br&gt;&lt;div&gt;&lt;br&gt;&lt;/div&gt;" style="text;html=1;align=center;verticalAlign=middle;whiteSpace=wrap;rounded=0;" vertex="1" parent="1">
          <mxGeometry x="250" y="478" width="170" height="161" as="geometry" />
        </mxCell>
        <mxCell id="TyAQfPITqGtHTtMJ1SKI-15" value="T1" style="align=center;strokeColor=#b85450;html=1;fillColor=#f8cecc;" vertex="1" parent="1">
          <mxGeometry x="520" y="499" width="30" height="20" as="geometry" />
        </mxCell>
        <mxCell id="TyAQfPITqGtHTtMJ1SKI-16" value="&lt;font style=&quot;font-size: 10px;&quot;&gt;task 7&lt;/font&gt;" style="align=center;strokeColor=#6c8ebf;html=1;fillColor=#dae8fc;" vertex="1" parent="1">
          <mxGeometry x="550" y="579" width="60" height="20" as="geometry" />
        </mxCell>
        <mxCell id="TyAQfPITqGtHTtMJ1SKI-17" value="&lt;font style=&quot;font-size: 10px;&quot;&gt;task 3&lt;/font&gt;" style="align=center;strokeColor=#6c8ebf;html=1;fillColor=#dae8fc;" vertex="1" parent="1">
          <mxGeometry x="490" y="519" width="30" height="20" as="geometry" />
        </mxCell>
        <mxCell id="TyAQfPITqGtHTtMJ1SKI-18" value="T4" style="align=center;strokeColor=#b85450;html=1;fillColor=#f8cecc;" vertex="1" parent="1">
          <mxGeometry x="730" y="539" width="30" height="20" as="geometry" />
        </mxCell>
        <mxCell id="TyAQfPITqGtHTtMJ1SKI-19" value="T5" style="align=center;strokeColor=#b85450;html=1;fillColor=#f8cecc;" vertex="1" parent="1">
          <mxGeometry x="970" y="539" width="30" height="20" as="geometry" />
        </mxCell>
        <mxCell id="TyAQfPITqGtHTtMJ1SKI-20" value="T6" style="align=center;strokeColor=#b85450;html=1;fillColor=#f8cecc;" vertex="1" parent="1">
          <mxGeometry x="1270" y="539" width="30" height="20" as="geometry" />
        </mxCell>
        <mxCell id="TyAQfPITqGtHTtMJ1SKI-21" value="&lt;font style=&quot;font-size: 10px;&quot;&gt;task 8&lt;/font&gt;" style="align=center;strokeColor=#6c8ebf;html=1;fillColor=#dae8fc;" vertex="1" parent="1">
          <mxGeometry x="670" y="539" width="30" height="20" as="geometry" />
        </mxCell>
        <mxCell id="TyAQfPITqGtHTtMJ1SKI-22" value="Exames" style="align=center;strokeColor=#d6b656;html=1;fillColor=#fff2cc;" vertex="1" parent="1">
          <mxGeometry x="760" y="559" width="90" height="20" as="geometry" />
        </mxCell>
        <mxCell id="TyAQfPITqGtHTtMJ1SKI-23" value="&lt;font style=&quot;font-size: 10px;&quot;&gt;task 9&lt;/font&gt;" style="align=center;strokeColor=#6c8ebf;html=1;fillColor=#dae8fc;" vertex="1" parent="1">
          <mxGeometry x="700" y="559" width="30" height="20" as="geometry" />
        </mxCell>
        <mxCell id="TyAQfPITqGtHTtMJ1SKI-24" value="&lt;font style=&quot;font-size: 10px;&quot;&gt;task 10&lt;/font&gt;" style="align=center;strokeColor=#6c8ebf;html=1;fillColor=#dae8fc;" vertex="1" parent="1">
          <mxGeometry x="880" y="559" width="30" height="20" as="geometry" />
        </mxCell>
        <mxCell id="TyAQfPITqGtHTtMJ1SKI-25" value="&lt;font style=&quot;font-size: 10px;&quot;&gt;task 11&lt;/font&gt;" style="align=center;strokeColor=#6c8ebf;html=1;fillColor=#dae8fc;" vertex="1" parent="1">
          <mxGeometry x="850" y="579" width="90" height="20" as="geometry" />
        </mxCell>
      </root>
    </mxGraphModel>
  </diagram>
</mxfile>
